<?xml version="1.0" standalone="no"?>
<!DOCTYPE svg PUBLIC "-//W3C//DTD SVG 20010904//EN"
 "http://www.w3.org/TR/2001/REC-SVG-20010904/DTD/svg10.dtd">
<svg version="1.0" xmlns="http://www.w3.org/2000/svg"
 width="992.000000pt" height="992.000000pt" viewBox="0 0 992.000000 992.000000"
 preserveAspectRatio="xMidYMid meet">
<metadata>
Created by potrace 1.14, written by Peter Selinger 2001-2017
</metadata>
<g transform="translate(0.000000,992.000000) scale(0.100000,-0.100000)"
fill="#000000" stroke="none">
<path d="M0 7440 l0 -620 2171 0 2171 0 -50 -62 c-124 -159 -224 -334 -306
-536 -57 -142 -59 -146 -61 -152 -1 -3 -4 -12 -8 -20 -10 -28 -45 -135 -58
-180 -7 -25 -14 -49 -15 -55 -28 -96 -46 -166 -50 -190 -3 -16 -9 -34 -13 -38
-4 -4 -578 -8 -1274 -8 l-1267 1 0 -23 c0 -12 0 -31 0 -42 -1 -60 -2 -152 -1
-165 0 -8 0 -44 0 -80 -1 -36 -1 -72 0 -80 0 -8 0 -44 0 -80 -1 -36 -1 -72 0
-80 0 -8 0 -44 0 -80 -1 -36 0 -76 1 -90 1 -14 2 -38 1 -55 -2 -95 0 -148 6
-158 4 -6 1 -7 -7 -2 -9 5 -10 2 -6 -13 4 -11 6 -42 6 -68 0 -27 0 -65 1 -84
2 -52 2 -54 -1 -65 -1 -5 -2 -24 -1 -42 l1 -32 158 -1 c86 -1 164 -1 172 -1 8
0 80 0 160 0 80 0 152 0 160 0 8 -1 173 -1 365 -1 193 1 357 1 365 1 50 -1
859 0 875 0 131 2 280 -1 285 -4 4 -3 10 -19 13 -37 6 -39 16 -86 23 -110 3
-9 7 -26 9 -37 7 -36 76 -253 102 -321 63 -163 150 -345 224 -465 11 -16 24
-41 31 -55 7 -14 18 -30 24 -37 6 -6 26 -35 45 -65 19 -29 39 -60 46 -68 6 -8
40 -51 74 -95 79 -101 66 -87 216 -241 165 -169 296 -281 457 -391 50 -34 96
-66 101 -70 69 -55 403 -225 555 -283 84 -32 257 -87 295 -95 11 -2 20 -4 20
-5 0 -1 7 -3 15 -5 8 -2 26 -6 40 -9 118 -27 190 -41 275 -52 28 -3 57 -8 66
-9 140 -27 650 -27 821 0 13 2 45 6 71 10 27 4 57 8 67 10 9 2 35 6 56 9 99
16 352 83 424 113 20 8 42 15 50 17 8 1 32 10 54 19 21 9 40 17 41 17 1 0 24
10 51 22 27 12 51 23 54 23 14 2 242 122 292 153 15 9 55 35 90 56 35 22 65
42 68 45 3 3 28 22 55 41 28 19 57 40 65 47 8 7 33 26 55 43 160 126 405 364
493 479 9 13 33 42 52 65 19 23 46 59 60 79 14 20 28 37 33 37 4 0 7 6 7 14 0
8 3 16 7 18 9 3 123 174 123 183 0 3 11 24 26 46 24 39 119 219 121 229 0 3 9
25 20 50 49 108 62 140 56 140 -3 0 -1 6 5 13 13 16 91 267 107 347 2 8 8 35
14 60 14 64 22 108 36 210 4 25 8 56 10 69 27 164 27 691 0 830 -1 9 -6 39 -9
66 -11 78 -15 101 -51 265 -2 8 -10 42 -19 75 -9 33 -19 69 -21 79 -7 30 -26
89 -35 111 -5 11 -23 61 -41 110 -17 50 -36 93 -41 96 -5 3 -9 8 -8 10 4 11
-91 212 -130 274 -10 17 -28 48 -40 70 -24 44 -155 241 -170 255 -3 3 -21 25
-39 50 -19 25 -40 50 -46 55 -6 6 -18 20 -26 32 -39 56 -207 231 -339 353 -65
60 -267 220 -278 220 -6 0 -12 4 -14 8 -4 11 -137 102 -148 102 -6 0 -10 3
-10 8 0 4 -15 13 -32 21 -18 8 -40 19 -48 26 -45 38 -345 176 -475 220 -27 10
-57 20 -65 23 -8 3 -17 6 -20 7 -3 1 -12 4 -20 7 -15 6 -90 27 -119 34 -9 2
-43 10 -77 18 -100 25 -223 46 -414 73 -25 3 -1646 7 -3602 10 l-3558 3 0
-620z m7075 -635 c22 -3 49 -7 60 -9 11 -2 38 -7 60 -11 22 -4 67 -14 100 -22
33 -8 65 -16 70 -18 6 -1 17 -5 25 -8 8 -3 35 -13 60 -21 133 -45 273 -115
395 -197 28 -18 52 -36 55 -39 3 -4 12 -11 21 -16 55 -31 279 -244 349 -333
19 -24 40 -48 45 -55 10 -11 82 -119 126 -191 33 -52 102 -199 119 -250 7 -22
16 -44 20 -50 4 -5 10 -21 13 -35 3 -14 15 -61 26 -105 12 -44 24 -91 26 -105
2 -14 7 -41 11 -60 3 -19 7 -54 8 -77 0 -24 3 -43 7 -43 6 0 3 -372 -4 -440
-3 -25 -6 -45 -7 -45 0 0 -3 -13 -5 -30 -7 -49 -12 -77 -25 -130 -6 -27 -13
-57 -15 -65 -10 -42 -49 -154 -77 -220 -96 -224 -216 -400 -397 -580 -110
-110 -240 -220 -260 -220 -6 0 -11 -4 -11 -8 0 -17 -207 -132 -335 -187 -83
-35 -239 -84 -290 -90 -11 -1 -27 -5 -35 -8 -8 -4 -31 -8 -50 -11 -19 -2 -35
-5 -35 -6 0 -6 -170 -14 -310 -14 -170 0 -257 6 -365 27 -14 3 -43 8 -65 12
-22 4 -44 10 -50 14 -5 3 -18 7 -28 8 -24 4 -194 61 -215 73 -10 5 -51 25 -92
45 -41 20 -88 44 -105 53 -47 28 -149 95 -155 102 -3 3 -21 17 -40 30 -64 45
-251 222 -320 305 -49 58 -150 202 -150 213 0 7 -4 12 -10 12 -5 0 -10 5 -10
11 0 6 -9 24 -21 40 -11 16 -17 29 -12 29 4 0 3 4 -4 8 -29 18 -127 273 -163
423 -19 81 -22 102 -37 219 -9 73 -10 391 -1 460 12 89 24 165 28 165 1 0 3
12 5 27 6 43 43 168 74 248 33 86 91 213 100 220 3 3 17 26 30 52 62 122 285
381 436 504 33 27 62 51 65 54 33 36 271 172 390 223 72 31 241 84 300 93 14
2 36 7 50 10 32 8 59 12 140 20 36 4 67 8 69 10 6 5 373 -4 416 -11z"/>
</g>
</svg>
